<?xml version="1.0" encoding="UTF-8" standalone="no"?>
<!-- Created with Inkscape (http://www.inkscape.org/) -->

<svg
   width="299.86099mm"
   height="227.89444mm"
   viewBox="0 0 299.86099 227.89444"
   version="1.1"
   id="svg5"
   xml:space="preserve"
   inkscape:export-filename="block_2.svg"
   inkscape:export-xdpi="96"
   inkscape:export-ydpi="96"
   sodipodi:docname="block_2.svg"
   inkscape:version="1.2.2 (732a01da63, 2022-12-09)"
   xmlns:inkscape="http://www.inkscape.org/namespaces/inkscape"
   xmlns:sodipodi="http://sodipodi.sourceforge.net/DTD/sodipodi-0.dtd"
   xmlns="http://www.w3.org/2000/svg"
   xmlns:svg="http://www.w3.org/2000/svg"><sodipodi:namedview
     id="namedview7"
     pagecolor="#ffffff"
     bordercolor="#000000"
     borderopacity="0.25"
     inkscape:showpageshadow="2"
     inkscape:pageopacity="0.0"
     inkscape:pagecheckerboard="0"
     inkscape:deskcolor="#d1d1d1"
     inkscape:document-units="mm"
     showgrid="false"
     inkscape:zoom="1"
     inkscape:cx="483.5"
     inkscape:cy="280.5"
     inkscape:window-width="1920"
     inkscape:window-height="991"
     inkscape:window-x="-9"
     inkscape:window-y="-9"
     inkscape:window-maximized="1"
     inkscape:current-layer="layer1" /><defs
     id="defs2" /><g
     inkscape:label="Vrstva 1"
     inkscape:groupmode="layer"
     id="layer1"
     transform="translate(44.930542,-14.729913)"><path
       style="fill:#000000;stroke-width:0.352778"
       d="m -18.119434,67.47019 c 0,-32.116112 -0.10386,-50.085927 -0.09893,-52.740277 0.210241,0 0.544001,0 0.56279,0 0.0049,0.41218 0.241694,12.170833 0.241694,35.806944 V 86.3438 H 118.75833 c 90.54629,0 135.83971,0.350168 136.17221,0.352778 -9e-5,0.04613 -9e-5,0.318187 -9e-5,0.318187 0,0 -49.61677,0.03459 -136.17212,0.03459 H -17.413878 v 16.227774 16.22778 H 118.75833 c 90.38093,0 132.85234,0.20502 136.17212,0.22049 -9e-5,0.1605 0,0.48528 0,0.48528 -3.33501,9.8e-4 -49.0608,-2.1e-4 -136.5249,-2.1e-4 H -18.119434 Z"
       id="path302"
       inkscape:label="path302"
       sodipodi:nodetypes="sccscsccscccsccscs" /></g></svg>
