<svg width="51" height="50" viewBox="0 0 51 50" fill="none" xmlns="http://www.w3.org/2000/svg">
<path d="M25.4827 0C11.1487 0 0 11.1487 0 25.4827C0 42.2057 15.1303 49.3727 17.5193 49.3727C19.112 49.3727 19.112 48.5763 19.112 47.78V43.7983C13.5377 45.391 11.1487 42.2057 10.3523 39.8167C10.3523 39.8167 10.3523 39.0203 8.75967 37.4277C7.96333 36.6313 4.778 35.0387 7.96333 35.0387C10.3523 35.0387 11.945 38.224 11.945 38.224C14.334 41.4093 17.5193 40.613 19.112 39.8167C19.112 38.224 20.7047 36.6313 20.7047 36.6313C14.334 35.835 9.556 33.446 9.556 24.6863C9.556 21.501 10.3523 19.112 11.945 17.5193C11.945 17.5193 10.3523 14.334 11.945 10.3523C11.945 10.3523 15.9267 10.3523 19.112 13.5377C21.501 11.945 29.4643 11.945 31.8533 13.5377C35.0387 10.3523 39.0203 10.3523 39.0203 10.3523C40.613 15.9267 39.0203 17.5193 39.0203 17.5193C40.613 19.112 41.4093 21.501 41.4093 24.6863C41.4093 33.446 35.835 35.835 30.2607 36.6313C31.057 37.4277 31.8533 39.0203 31.8533 41.4093V47.78C31.8533 48.5763 31.8533 49.3727 33.446 49.3727C35.835 49.3727 50.9653 42.2057 50.9653 25.4827C50.9653 11.1487 39.8167 0 25.4827 0Z" fill="black"/>
</svg>
