<svg width="53" height="53" viewBox="0 0 53 53" fill="none" xmlns="http://www.w3.org/2000/svg">
<path d="M11.8634 52.9986H0.875443V17.6142H11.8634V52.9986ZM6.36352 12.7874C2.84992 12.7874 0 9.87713 0 6.36352C2.51489e-08 4.67581 0.670441 3.05723 1.86383 1.86383C3.05723 0.670441 4.67581 0 6.36352 0C8.05124 0 9.66982 0.670441 10.8632 1.86383C12.0566 3.05723 12.727 4.67581 12.727 6.36352C12.727 9.87713 9.87595 12.7874 6.36352 12.7874ZM52.988 52.9986H42.0236V35.7737C42.0236 31.6686 41.9408 26.4041 36.3108 26.4041C30.5979 26.4041 29.7225 30.8641 29.7225 35.4779V52.9986H18.7463V17.6142H29.2848V22.4409H29.4385C30.9055 19.6608 34.4889 16.7269 39.835 16.7269C50.9555 16.7269 52.9998 24.0498 52.9998 33.5614V52.9986H52.988Z" fill="black"/>
</svg>
