<svg width="114" height="114" viewBox="0 0 114 114" fill="none" xmlns="http://www.w3.org/2000/svg">
<path d="M12.046 11.1914H37.1707L45.2677 31.4367L32.2577 40.1101C31.4915 40.6212 30.8634 41.3136 30.429 42.1257C29.9947 42.9379 29.7675 43.8447 29.7676 44.7657C29.7844 45.2917 29.7676 44.7713 29.7676 44.7713V44.8888C29.7705 45.139 29.7817 45.3891 29.8012 45.6386C29.8347 46.0975 29.8907 46.7186 29.997 47.4852C30.2152 48.9961 30.6349 51.0777 31.4519 53.5286C33.097 58.4528 36.3202 64.8263 42.5986 71.1047C48.8769 77.3831 55.2505 80.6062 60.1691 82.2514C62.6256 83.0683 64.7016 83.4824 66.2237 83.7063C67.0828 83.8261 67.9475 83.9009 68.8145 83.9301L68.8872 83.9357H68.932C68.932 83.9357 69.5587 83.9021 68.9376 83.9357C69.9765 83.9351 70.9947 83.6454 71.8783 83.0988C72.7618 82.5523 73.4758 81.7706 73.9401 80.8413L77.6893 73.343L102.512 77.4838V101.657C90.6993 103.364 58.7925 105.048 33.7238 79.9795C8.65497 54.9107 10.3337 22.9984 12.046 11.1914ZM41.3675 47.4852L51.479 40.748C53.6151 39.3231 55.1963 37.2071 55.9574 34.7548C56.7184 32.3024 56.6131 29.663 55.659 27.2791L47.562 7.03381C46.7311 4.95727 45.297 3.17733 43.4448 1.92359C41.5927 0.669858 39.4073 -0.000149928 37.1707 2.51652e-08H11.755C6.66849 2.51652e-08 1.88416 3.53089 1.0504 9.04827C-0.852147 21.5939 -3.43177 58.6487 25.8114 87.8919C55.0546 117.135 92.1094 114.55 104.655 112.653C110.172 111.814 113.703 107.035 113.703 101.948V77.4838C113.704 74.8346 112.764 72.2712 111.052 70.2496C109.34 68.228 106.966 66.8793 104.353 66.4435L79.5303 62.3083C77.1694 61.9142 74.7444 62.2874 72.6113 63.3731C70.4781 64.4588 68.7493 66.1998 67.6785 68.3404L65.7424 72.2183C65.0578 72.0497 64.3801 71.8537 63.7112 71.6307C60.2418 70.478 55.4239 68.1054 50.5109 63.1924C45.5979 58.2793 43.2253 53.4614 42.0726 49.9865C41.7974 49.1651 41.5639 48.3302 41.3731 47.4852H41.3675Z" fill="#0D0D0D"/>
</svg>
